<svg width="400" height="300" viewBox="0 0 400 300" fill="none" xmlns="http://www.w3.org/2000/svg">
  <rect width="400" height="300" fill="#F3F4F6"/>
  <path d="M200 75C213.807 75 225 63.8071 225 50C225 36.1929 213.807 25 200 25C186.193 25 175 36.1929 175 50C175 63.8071 186.193 75 200 75Z" fill="#1F2937"/>
  <path d="M250 275H150L175 100H225L250 275Z" fill="#1F2937"/>
  <path d="M200 100H175L150 275H175L187.5 150L200 275L212.5 150L225 275H250L225 100H200Z" fill="#111827"/>
  <path d="M187.5 125H212.5L200 175L187.5 125Z" fill="#4B5563"/>
</svg>