<svg width="400" height="300" viewBox="0 0 400 300" fill="none" xmlns="http://www.w3.org/2000/svg">
  <rect width="400" height="300" fill="#F3F4F6"/>
  <path d="M200 75C213.807 75 225 63.8071 225 50C225 36.1929 213.807 25 200 25C186.193 25 175 36.1929 175 50C175 63.8071 186.193 75 200 75Z" fill="#EC4899"/>
  <path d="M250 275H150C150 275 175 100 200 100C225 100 250 275 250 275Z" fill="#EC4899"/>
  <path d="M200 100C175 100 150 275 150 275H175L200 150L225 275H250C250 275 225 100 200 100Z" fill="#DB2777"/>
  <path d="M185 125L215 125L200 200L185 125Z" fill="#F9A8D4"/>
  <!-- Sparkles -->
  <circle cx="150" cy="50" r="5" fill="#F9A8D4"/>
  <circle cx="250" cy="75" r="5" fill="#F9A8D4"/>
  <circle cx="175" cy="200" r="5" fill="#F9A8D4"/>
  <circle cx="225" cy="225" r="5" fill="#F9A8D4"/>
</svg>