<svg width="2226" height="1854" viewBox="0 0 2226 1854" fill="none" xmlns="http://www.w3.org/2000/svg">
<path d="M125.881 1460.14C108.265 1460.14 92.3617 1458.06 78.171 1453.91C63.9803 1449.99 51.747 1444 41.471 1435.92C31.195 1427.85 23.2433 1417.82 17.616 1405.83C12.2333 1394.08 9.542 1380.38 9.542 1364.72C9.542 1359.1 10.0313 1352.49 11.01 1344.91C11.9887 1337.32 13.8237 1328.76 16.515 1319.22C19.2063 1309.43 23.2433 1298.54 28.626 1286.55L73.767 1302.33C71.0757 1309.92 68.7513 1316.89 66.794 1323.25C64.8367 1329.37 63.3687 1335.12 62.39 1340.5C61.4113 1345.64 60.922 1350.78 60.922 1355.92C60.922 1365.46 63.124 1374.27 67.528 1382.34C71.932 1390.41 79.0273 1396.78 88.814 1401.42C98.6007 1406.32 111.446 1408.76 127.349 1408.76C142.029 1408.76 154.262 1407.05 164.049 1403.63C173.836 1400.45 181.543 1395.92 187.17 1390.05C192.797 1384.42 196.834 1377.81 199.281 1370.23C201.728 1362.64 202.951 1354.45 202.951 1345.64C202.951 1338.79 202.095 1331.08 200.382 1322.52C198.914 1313.96 196.712 1304.66 193.776 1294.63C190.84 1284.35 187.537 1273.59 183.867 1262.33L235.247 1249.12C238.672 1263.31 241.364 1274.32 243.321 1282.15C245.523 1289.98 247.236 1295.85 248.459 1299.76C250.906 1307.1 253.842 1312.73 257.267 1316.65C260.937 1320.32 264.974 1322.76 269.378 1323.99C274.027 1325.21 279.165 1325.82 284.792 1325.82C289.441 1325.82 293.722 1325.09 297.637 1323.62C301.552 1322.15 305.099 1319.09 308.28 1314.44C311.705 1309.55 314.764 1302.09 317.455 1292.06C320.146 1282.03 322.593 1268.2 324.795 1250.59L373.239 1258.29C372.26 1263.92 371.282 1269.92 370.303 1276.28C369.324 1282.64 368.468 1288.63 367.734 1294.26C367 1299.64 366.633 1304.05 366.633 1307.47C366.633 1310.65 367.489 1313.59 369.202 1316.28C371.159 1318.97 374.585 1321.17 379.478 1322.89C384.371 1324.6 391.344 1325.45 400.397 1325.45C411.652 1325.45 419.848 1323.13 424.986 1318.48C430.369 1313.59 433.06 1306.25 433.06 1296.46C433.06 1290.83 432.938 1284.84 432.693 1278.48C432.448 1271.87 431.959 1264.53 431.225 1256.46C430.736 1248.14 429.757 1238.72 428.289 1228.2L475.632 1224.53C477.589 1247.28 479.791 1265.39 482.238 1278.85C484.685 1292.3 487.865 1302.46 491.78 1309.31C495.939 1315.91 501.2 1320.32 507.561 1322.52C513.922 1324.48 521.874 1325.45 531.416 1325.45C540.713 1325.45 547.319 1327.9 551.234 1332.79C555.393 1337.44 557.473 1343.32 557.473 1350.41C557.473 1358 554.904 1364.36 549.766 1369.49C544.628 1374.39 537.288 1376.84 527.746 1376.84C517.47 1376.84 507.561 1375.49 498.019 1372.8C488.477 1370.11 480.036 1365.34 472.696 1358.48C465.601 1351.39 460.218 1341.48 456.548 1328.76L470.494 1330.96C467.313 1344.17 461.931 1354.08 454.346 1360.69C447.006 1367.29 438.687 1371.7 429.39 1373.9C420.093 1375.86 410.795 1376.84 401.498 1376.84C389.265 1376.84 378.377 1375 368.835 1371.33C359.538 1367.66 352.198 1362.4 346.815 1355.55C341.677 1348.7 339.23 1340.38 339.475 1330.59H351.953C348.283 1344.05 343.267 1354.08 336.906 1360.69C330.545 1367.29 323.449 1371.7 315.62 1373.9C307.791 1375.86 299.839 1376.84 291.765 1376.84C285.404 1376.84 279.287 1376.22 273.415 1375C267.543 1373.78 262.16 1371.82 257.267 1369.13C252.618 1366.19 248.581 1362.4 245.156 1357.75C241.731 1352.86 239.406 1346.99 238.183 1340.13L251.762 1354.81C251.273 1371.45 247.97 1386.25 241.853 1399.22C235.736 1412.19 227.173 1423.2 216.163 1432.25C205.398 1441.3 192.308 1448.16 176.894 1452.8C161.725 1457.7 144.72 1460.14 125.881 1460.14ZM528.279 1376.84L531.949 1325.45H637.645C646.943 1325.45 653.549 1327.9 657.463 1332.79C661.623 1337.44 663.702 1343.32 663.702 1350.41C663.702 1358 661.133 1364.36 655.995 1369.49C650.857 1374.39 643.517 1376.84 633.975 1376.84H528.279ZM634.365 1376.84L638.035 1325.45H743.731C753.029 1325.45 759.635 1327.9 763.549 1332.79C767.709 1337.44 769.788 1343.32 769.788 1350.41C769.788 1358 767.219 1364.36 762.081 1369.49C756.943 1374.39 749.603 1376.84 740.061 1376.84H634.365ZM740.451 1376.84L744.121 1325.45C755.621 1325.45 763.695 1324.35 768.343 1322.15C773.237 1319.71 776.173 1315.3 777.151 1308.94C778.13 1302.33 778.375 1292.79 777.885 1280.31L772.013 1106.36H824.127L830.366 1279.95C830.856 1292.18 832.324 1301.6 834.77 1308.21C837.217 1314.81 841.254 1319.34 846.881 1321.78C852.753 1324.23 860.583 1325.45 870.369 1325.45C879.667 1325.45 886.273 1327.9 890.187 1332.79C894.102 1337.44 896.059 1343.32 896.059 1350.41C896.059 1358 893.49 1364.36 888.352 1369.49C883.214 1374.39 875.997 1376.84 866.699 1376.84C855.934 1376.84 845.903 1375.61 836.605 1373.16C827.308 1370.72 819.601 1366.07 813.484 1359.22C807.368 1352.37 803.331 1342.46 801.373 1329.49L817.521 1329.86C813.362 1342.58 807.979 1352.37 801.373 1359.22C794.767 1365.82 786.449 1370.47 776.417 1373.16C766.631 1375.61 754.642 1376.84 740.451 1376.84ZM866.607 1376.84L870.277 1325.45H975.973C985.271 1325.45 991.877 1327.9 995.791 1332.79C999.951 1337.44 1002.03 1343.32 1002.03 1350.41C1002.03 1358 999.461 1364.36 994.323 1369.49C989.185 1374.39 981.845 1376.84 972.303 1376.84H866.607ZM972.693 1376.84L976.363 1325.45C987.129 1325.45 995.57 1324.72 1001.69 1323.25C1008.05 1321.78 1012.57 1319.09 1015.27 1315.18C1017.96 1311.02 1019.3 1305.15 1019.3 1297.56C1019.3 1290.71 1018.32 1282.52 1016.37 1272.97C1014.65 1263.43 1012.33 1253.52 1009.39 1243.25C1006.46 1232.97 1003.52 1223.55 1000.59 1214.99L1051.23 1201.04C1054.17 1209.36 1057.1 1219.02 1060.04 1230.03C1062.98 1241.04 1065.42 1252.42 1067.38 1264.17C1069.58 1275.67 1070.68 1286.8 1070.68 1297.56C1070.68 1311.02 1068.97 1322.4 1065.54 1331.69C1062.12 1340.75 1057.35 1348.33 1051.23 1354.45C1045.36 1360.32 1038.26 1364.97 1029.95 1368.39C1021.87 1371.57 1012.94 1373.78 1003.15 1375C993.368 1376.22 983.214 1376.84 972.693 1376.84ZM1017.83 1461.25C1010.74 1461.25 1004.62 1458.8 999.484 1453.91C994.591 1449.01 992.144 1443.02 992.144 1435.92C992.144 1428.83 994.591 1422.59 999.484 1417.21C1004.62 1412.07 1010.74 1409.5 1017.83 1409.5C1024.93 1409.5 1030.92 1412.07 1035.82 1417.21C1040.96 1422.59 1043.52 1428.83 1043.52 1435.92C1043.52 1443.02 1040.96 1449.01 1035.82 1453.91C1030.92 1458.8 1024.93 1461.25 1017.83 1461.25ZM1302.2 1444C1285.8 1444 1270.39 1442.16 1255.95 1438.49C1241.76 1435.07 1229.16 1429.56 1218.15 1421.98C1207.39 1414.64 1198.95 1404.97 1192.83 1392.98C1186.71 1381.24 1183.66 1367.05 1183.66 1350.41C1183.66 1344.78 1184.02 1338.42 1184.76 1331.33C1185.73 1324.23 1187.69 1315.79 1190.63 1306C1193.56 1295.97 1198.09 1284.35 1204.21 1271.14L1248.98 1288.39C1245.31 1297.2 1242.5 1304.66 1240.54 1310.77C1238.58 1316.65 1237.11 1322.03 1236.14 1326.92C1235.4 1331.57 1235.04 1336.46 1235.04 1341.6C1235.04 1349.68 1236.75 1356.89 1240.17 1363.26C1243.84 1369.62 1248.86 1375 1255.22 1379.4C1261.83 1383.81 1269.78 1387.11 1279.08 1389.31C1288.62 1391.52 1299.26 1392.62 1311 1392.62C1326.17 1392.62 1339.39 1391.64 1350.64 1389.68C1361.89 1387.97 1371.31 1385.4 1378.9 1381.97C1386.73 1378.79 1392.97 1374.88 1397.62 1370.23C1402.26 1365.58 1405.57 1360.56 1407.53 1355.18C1409.97 1348.82 1411.56 1342.21 1412.3 1335.36C1413.27 1328.27 1413.76 1320.19 1413.76 1311.14C1413.76 1300.38 1412.79 1291.2 1410.83 1283.62C1409.12 1275.79 1406.42 1269.79 1402.75 1265.63C1399.08 1261.47 1394.56 1259.39 1389.18 1259.39C1384.77 1259.39 1380.73 1260.86 1377.06 1263.8C1373.64 1266.73 1370.95 1270.4 1368.99 1274.81C1367.03 1278.97 1366.05 1283.25 1366.05 1287.65C1366.05 1291.32 1366.91 1294.38 1368.62 1296.83C1370.58 1299.28 1373.39 1301.23 1377.06 1302.7C1380.73 1303.92 1385.26 1304.54 1390.64 1304.54C1396.03 1304.54 1402.02 1303.92 1408.63 1302.7C1415.23 1301.23 1421.1 1299.03 1426.24 1296.09L1429.91 1340.5C1424.04 1345.15 1416.09 1348.7 1406.06 1351.14C1396.27 1353.35 1387.1 1354.45 1378.53 1354.45C1365.81 1354.45 1354.68 1352.74 1345.14 1349.31C1335.84 1345.64 1328.62 1339.65 1323.48 1331.33C1318.34 1323.01 1315.78 1311.75 1315.78 1297.56C1315.78 1287.29 1317.61 1277.01 1321.28 1266.73C1324.95 1256.21 1330.09 1246.55 1336.69 1237.74C1343.3 1228.93 1351.25 1221.96 1360.55 1216.82C1369.85 1211.44 1380.12 1208.75 1391.38 1208.75C1407.28 1208.75 1420.61 1213.4 1431.38 1222.69C1442.39 1231.75 1450.71 1243.86 1456.34 1259.03C1462.21 1273.95 1465.14 1290.22 1465.14 1307.84C1465.14 1324.23 1463.43 1338.67 1460.01 1351.14C1456.83 1363.38 1452.67 1374.27 1447.53 1383.81C1441.41 1394.57 1433.7 1403.75 1424.41 1411.33C1415.35 1419.16 1404.71 1425.4 1392.48 1430.05C1380.49 1434.94 1366.91 1438.49 1351.74 1440.69C1336.57 1442.9 1320.06 1444 1302.2 1444ZM1424.04 1175.35C1416.94 1175.35 1410.83 1172.91 1405.69 1168.01C1400.8 1162.87 1398.35 1156.88 1398.35 1150.03C1398.35 1142.93 1400.8 1136.82 1405.69 1131.68C1410.83 1126.54 1416.94 1123.97 1424.04 1123.97C1430.89 1123.97 1436.76 1126.54 1441.66 1131.68C1446.55 1136.82 1449 1142.93 1449 1150.03C1449 1156.88 1446.55 1162.87 1441.66 1168.01C1436.76 1172.91 1430.89 1175.35 1424.04 1175.35ZM1360.55 1174.98C1353.45 1174.98 1347.34 1172.54 1342.2 1167.65C1337.31 1162.51 1334.86 1156.51 1334.86 1149.66C1334.86 1142.57 1337.31 1136.45 1342.2 1131.31C1347.34 1126.17 1353.45 1123.6 1360.55 1123.6C1367.4 1123.6 1373.27 1126.17 1378.17 1131.31C1383.06 1136.45 1385.51 1142.57 1385.51 1149.66C1385.51 1156.51 1383.06 1162.51 1378.17 1167.65C1373.27 1172.54 1367.4 1174.98 1360.55 1174.98ZM1485.34 1459.41L1466.62 1412.43C1487.67 1405.09 1504.67 1397.02 1517.64 1388.21C1530.85 1379.4 1540.51 1369.98 1546.63 1359.95C1552.99 1349.92 1556.17 1339.52 1556.17 1328.76C1556.17 1321.91 1555.19 1314.81 1553.24 1307.47C1551.28 1299.89 1548.46 1291.94 1544.79 1283.62C1541.37 1275.3 1537.21 1266.61 1532.32 1257.56L1580.39 1234.44C1588.96 1250.83 1595.56 1266.49 1600.21 1281.41C1605.11 1296.34 1607.55 1310.29 1607.55 1323.25C1607.55 1335.24 1605.96 1346.74 1602.78 1357.75C1599.84 1368.76 1595.2 1379.04 1588.83 1388.58C1582.72 1398.37 1574.77 1407.54 1564.98 1416.1C1555.19 1424.67 1543.69 1432.5 1530.48 1439.59C1517.27 1446.93 1502.22 1453.54 1485.34 1459.41ZM1745.98 1376.84C1723.22 1376.84 1705.61 1374.51 1693.13 1369.86C1680.9 1365.21 1672.33 1358 1667.44 1348.21C1662.55 1338.18 1659.73 1325.58 1659 1310.41L1651.29 1106.36H1702.67L1710.38 1285.82C1710.87 1297.07 1712.09 1305.51 1714.05 1311.14C1716.01 1316.77 1719.68 1320.56 1725.06 1322.52C1730.69 1324.48 1738.88 1325.45 1749.65 1325.45C1758.94 1325.45 1765.55 1327.9 1769.46 1332.79C1773.62 1337.44 1775.7 1343.32 1775.7 1350.41C1775.7 1358 1773.13 1364.36 1768 1369.49C1762.86 1374.39 1755.52 1376.84 1745.98 1376.84ZM1746.48 1376.84L1750.15 1325.45H1855.84C1865.14 1325.45 1871.74 1327.9 1875.66 1332.79C1879.82 1337.44 1881.9 1343.32 1881.9 1350.41C1881.9 1358 1879.33 1364.36 1874.19 1369.49C1869.05 1374.39 1861.71 1376.84 1852.17 1376.84H1746.48ZM1852.56 1376.84L1856.23 1325.45C1865.04 1325.45 1872.62 1324.6 1878.99 1322.89C1885.35 1321.17 1890.73 1317.75 1895.13 1312.61C1899.54 1307.23 1903.21 1299.4 1906.14 1289.12C1909.32 1278.85 1912.14 1265.14 1914.58 1248.02L1962.66 1256.09C1962.17 1259.76 1961.44 1264.04 1960.46 1268.94C1959.73 1273.83 1958.99 1278.85 1958.26 1283.98C1957.77 1288.88 1957.52 1293.53 1957.52 1297.93C1957.52 1302.33 1958.38 1306.25 1960.09 1309.67C1961.81 1313.1 1964.5 1316.04 1968.17 1318.48C1972.08 1320.68 1977.1 1322.4 1983.21 1323.62C1989.57 1324.84 1997.28 1325.45 2006.33 1325.45C2015.63 1325.45 2022.24 1327.9 2026.15 1332.79C2030.07 1337.44 2032.02 1343.32 2032.02 1350.41C2032.02 1358 2029.46 1364.36 2024.32 1369.49C2019.42 1374.39 2012.21 1376.84 2002.66 1376.84C1991.65 1376.84 1981.62 1375.98 1972.57 1374.27C1963.76 1372.55 1956.06 1369.74 1949.45 1365.82C1943.09 1361.67 1937.83 1356.28 1933.67 1349.68C1929.75 1342.83 1927.31 1334.51 1926.33 1324.72H1943.94C1939.54 1336.46 1933.91 1345.88 1927.06 1352.98C1920.46 1359.83 1912.99 1364.97 1904.68 1368.39C1896.36 1371.82 1887.67 1374.02 1878.62 1375C1869.81 1376.22 1861.12 1376.84 1852.56 1376.84ZM1954.95 1461.98C1947.86 1461.98 1941.74 1459.41 1936.6 1454.27C1931.71 1449.38 1929.26 1443.51 1929.26 1436.66C1929.26 1429.56 1931.71 1423.44 1936.6 1418.31C1941.74 1413.17 1947.86 1410.6 1954.95 1410.6C1961.81 1410.6 1967.68 1413.17 1972.57 1418.31C1977.46 1423.44 1979.91 1429.56 1979.91 1436.66C1979.91 1443.51 1977.46 1449.38 1972.57 1454.27C1967.68 1459.41 1961.81 1461.98 1954.95 1461.98ZM1891.46 1461.98C1884.37 1461.98 1878.25 1459.41 1873.11 1454.27C1868.22 1449.38 1865.77 1443.51 1865.77 1436.66C1865.77 1429.56 1868.22 1423.44 1873.11 1418.31C1878.25 1413.17 1884.37 1410.6 1891.46 1410.6C1898.31 1410.6 1904.19 1413.17 1909.08 1418.31C1913.97 1423.44 1916.42 1429.56 1916.42 1436.66C1916.42 1443.51 1913.97 1449.38 1909.08 1454.27C1904.19 1459.41 1898.31 1461.98 1891.46 1461.98ZM2002.73 1376.84L2006.4 1325.45H2112.1C2121.39 1325.45 2128 1327.9 2131.91 1332.79C2136.07 1337.44 2138.15 1343.32 2138.15 1350.41C2138.15 1358 2135.58 1364.36 2130.45 1369.49C2125.31 1374.39 2117.97 1376.84 2108.43 1376.84H2002.73ZM2108.82 1376.84L2112.49 1325.45C2123.25 1325.45 2131.69 1324.72 2137.81 1323.25C2144.17 1321.78 2148.7 1319.09 2151.39 1315.18C2154.08 1311.02 2155.43 1305.15 2155.43 1297.56C2155.43 1290.71 2154.45 1282.52 2152.49 1272.97C2150.78 1263.43 2148.45 1253.52 2145.52 1243.25C2142.58 1232.97 2139.64 1223.55 2136.71 1214.99L2187.35 1201.04C2190.29 1209.36 2193.23 1219.02 2196.16 1230.03C2199.1 1241.04 2201.55 1252.42 2203.5 1264.17C2205.7 1275.67 2206.81 1286.8 2206.81 1297.56C2206.81 1311.02 2205.09 1322.4 2201.67 1331.69C2198.24 1340.75 2193.47 1348.33 2187.35 1354.45C2181.48 1360.32 2174.39 1364.97 2166.07 1368.39C2157.99 1371.57 2149.06 1373.78 2139.28 1375C2129.49 1376.22 2119.34 1376.84 2108.82 1376.84ZM2153.96 1461.25C2146.86 1461.25 2140.75 1458.8 2135.61 1453.91C2130.71 1449.01 2128.27 1443.02 2128.27 1435.92C2128.27 1428.83 2130.71 1422.59 2135.61 1417.21C2140.75 1412.07 2146.86 1409.5 2153.96 1409.5C2161.05 1409.5 2167.05 1412.07 2171.94 1417.21C2177.08 1422.59 2179.65 1428.83 2179.65 1435.92C2179.65 1443.02 2177.08 1449.01 2171.94 1453.91C2167.05 1458.8 2161.05 1461.25 2153.96 1461.25Z" fill="#F9F9F9"/>
<path fill-rule="evenodd" clip-rule="evenodd" d="M542.82 1768.18V1814.58H569C576.47 1814.58 581.99 1812.77 585.56 1809.15C589.13 1805.52 590.92 1800.67 590.92 1794.6C590.92 1789.77 589.91 1785.41 587.9 1781.51C585.88 1777.62 582.7 1774.42 578.35 1771.92C574 1769.43 568.82 1768.18 562.8 1768.18H542.82ZM851.44 1722.58L831.05 1781.15H872.3L851.44 1722.58ZM542.82 1717.82V1757.22H563.04C571.69 1757.22 577.91 1755.78 581.69 1752.91C585.48 1750.04 587.37 1745.97 587.37 1740.7C587.37 1734.21 584.98 1728.77 580.2 1724.39C575.42 1720.01 568.82 1717.82 560.38 1717.82H542.82ZM1302.82 1717.26V1764.87H1325.14C1333.89 1764.87 1340.23 1763.22 1344.15 1759.92C1348.07 1756.62 1350.03 1751.66 1350.03 1745.06C1350.03 1737.21 1347.59 1730.62 1342.7 1725.28C1337.81 1719.93 1330.91 1717.26 1322 1717.26H1302.82ZM955.82 1717.26V1763.42H978.14C987 1763.42 993.4 1761.85 997.35 1758.71C1001.3 1755.57 1003.27 1750.8 1003.27 1744.41C1003.27 1739.47 1002.27 1734.98 1000.25 1730.96C998.24 1726.93 995.04 1723.64 990.67 1721.09C986.29 1718.54 981.06 1717.26 975 1717.26H955.82ZM1152.24 1715.97C1144.5 1715.97 1138.51 1719.03 1134.27 1725.16C1130.03 1731.28 1127.91 1739.9 1127.91 1751.02C1127.91 1771.53 1130.82 1787.57 1136.65 1799.12C1142.47 1810.66 1150.63 1816.44 1161.1 1816.44C1168.78 1816.44 1174.72 1813.23 1178.9 1806.81C1183.09 1800.39 1185.19 1791.43 1185.19 1779.94C1185.19 1759.69 1182.32 1743.97 1176.57 1732.77C1170.82 1721.57 1162.71 1715.97 1152.24 1715.97ZM1495.59 1707.11H1520.81V1774.14C1520.81 1785.69 1523.37 1794.76 1528.5 1801.37C1533.63 1807.98 1540.54 1811.28 1549.25 1811.28C1557.2 1811.28 1563.37 1808.55 1567.78 1803.1C1572.18 1797.65 1574.03 1790.41 1573.34 1781.39L1567.21 1707.11H1585.98V1773.74C1585.98 1790.39 1581.97 1803.45 1573.94 1812.93C1565.91 1822.41 1554.72 1827.15 1540.38 1827.15C1526.37 1827.15 1515.4 1822.61 1507.47 1813.54C1499.55 1804.46 1495.59 1791.89 1495.59 1775.83V1707.11ZM1397.68 1707.11H1422.82V1813.78H1424.51L1474.79 1810.48L1471.32 1825.3H1397.68V1707.11ZM1277.68 1707.11H1324.73C1342.03 1707.11 1354.6 1709.82 1362.44 1715.25C1370.28 1720.67 1374.2 1728.75 1374.2 1739.5C1374.2 1751.69 1369.5 1760.82 1360.1 1766.89C1350.7 1772.96 1337.03 1775.99 1319.09 1775.99H1302.82V1825.3H1277.84V1775.99H1277.68V1707.11ZM1052.84 1707.11H1077.82V1825.3H1052.84V1707.11ZM930.68 1707.11H977.73C995.03 1707.11 1007.6 1709.75 1015.44 1715.04C1023.28 1720.33 1027.2 1728.27 1027.2 1738.85C1027.2 1755.07 1018.53 1765.81 1001.18 1771.08L1031.15 1825.3H1005.93L978.14 1774.54C977.55 1774.54 976.57 1774.58 975.2 1774.66C973.83 1774.74 972.79 1774.78 972.09 1774.78H955.82V1825.3H930.84V1774.78H930.68V1707.11ZM844.27 1707.11H869.16L912.1 1825.54L886.32 1825.3L874.96 1792.75H828.56L822.35 1825.3H801.08L844.27 1707.11ZM684.32 1707.11H712.2L746.6 1761.17L764.17 1733.13L767.87 1707.11H794.86L754.42 1770.68V1826.35H729.28V1778.25L684.32 1707.11ZM640.84 1707.11H665.82V1825.3H640.84V1707.11ZM517.68 1707.11H563.28C578.59 1707.11 590.42 1709.49 598.77 1714.24C607.13 1718.99 611.3 1725.96 611.3 1735.15C611.3 1741 609.49 1746.29 605.86 1751.02C602.24 1755.74 596.77 1759.4 589.47 1761.97C606.39 1766 614.85 1775.7 614.85 1791.06C614.85 1802.23 610.46 1810.73 601.67 1816.56C592.89 1822.39 579.67 1825.3 562 1825.3H517.68V1707.11ZM1653.69 1705.09C1663.68 1705.09 1672.34 1706.38 1679.67 1708.96C1687.01 1711.54 1692.85 1714.84 1697.2 1718.87L1681.73 1739.5C1678.94 1733.37 1674.16 1727.79 1667.39 1722.74C1660.62 1717.69 1653.72 1715.17 1646.68 1715.17C1641.63 1715.17 1637.53 1716.55 1634.36 1719.31C1631.19 1722.08 1629.6 1725.72 1629.6 1730.23C1629.6 1733.29 1630.41 1736.05 1632.02 1738.49C1633.63 1740.93 1635.81 1743 1638.55 1744.69C1641.28 1746.38 1644.43 1747.94 1647.97 1749.37C1651.52 1750.79 1655.25 1752.16 1659.17 1753.47C1663.09 1754.79 1667.01 1756.16 1670.93 1757.58C1674.85 1759.01 1678.59 1760.69 1682.13 1762.62C1685.68 1764.55 1688.82 1766.73 1691.56 1769.14C1694.3 1771.56 1696.47 1774.54 1698.08 1778.09C1699.7 1781.63 1700.5 1785.61 1700.5 1790.01C1700.5 1797.42 1698.34 1803.99 1694.02 1809.71C1689.69 1815.43 1683.77 1819.81 1676.25 1822.84C1668.73 1825.88 1660.24 1827.39 1650.79 1827.39C1642.79 1827.39 1634.91 1826.31 1627.15 1824.13C1619.38 1821.96 1612.76 1819.12 1607.29 1815.63L1619.05 1793.15C1621.36 1796.21 1623.83 1799.03 1626.46 1801.61C1629.09 1804.19 1632.1 1806.69 1635.48 1809.11C1638.87 1811.52 1642.6 1813.42 1646.68 1814.79C1650.76 1816.16 1654.95 1816.84 1659.25 1816.84C1665.37 1816.84 1670.18 1815.39 1673.67 1812.49C1677.16 1809.59 1678.91 1805.18 1678.91 1799.28C1678.91 1795.3 1678.1 1791.81 1676.49 1788.8C1674.88 1785.79 1672.71 1783.32 1669.97 1781.39C1667.23 1779.46 1664.09 1777.74 1660.54 1776.23C1657 1774.73 1653.25 1773.39 1649.3 1772.21C1645.35 1771.02 1641.42 1769.83 1637.5 1768.62C1633.58 1767.41 1629.84 1765.95 1626.3 1764.23C1622.75 1762.51 1619.61 1760.54 1616.87 1758.31C1614.13 1756.08 1611.96 1753.21 1610.35 1749.69C1608.74 1746.17 1607.93 1742.15 1607.93 1737.64C1607.93 1727.06 1612.01 1718.99 1620.18 1713.43C1628.34 1707.87 1639.51 1705.09 1653.69 1705.09ZM1156.59 1705.09C1173.4 1705.09 1186.42 1710.2 1195.66 1720.4C1204.9 1730.61 1209.52 1745.22 1209.52 1764.23C1209.52 1777.93 1207.13 1789.73 1202.35 1799.64C1197.57 1809.55 1190.69 1816.87 1181.72 1821.59L1205.65 1826.1L1198.24 1842.38L1145.39 1826.35C1132.18 1823.93 1121.93 1817.23 1114.65 1806.25C1107.38 1795.26 1103.74 1781.26 1103.74 1764.23C1103.74 1745.22 1108.34 1730.61 1117.55 1720.4C1126.76 1710.2 1139.78 1705.09 1156.59 1705.09Z" fill="url(#paint0_linear_2301_52)"/>
<path fill-rule="evenodd" clip-rule="evenodd" d="M1410.19 0.385803C1403.62 0.385803 1397.34 2.69484 1392.23 6.34784L906.724 370.832C881.312 389.892 898.763 430.16 929.869 425.055L1300.08 363.381L2005.45 665.915C2036.26 679.298 2062.77 640.198 2039.11 616.543L1674.89 252.117L1431.88 9.29181C1426.11 3.52681 1418.15 0.158803 1410.19 0.385803ZM196.753 243.298C169.662 242.984 156.007 275.801 175.137 295.234L539.359 659.345L782.077 902.455C792.666 913.077 809.753 914.445 821.726 905.311L1307.16 540.915C1332.58 521.768 1315.49 481.527 1284.09 486.692L914.171 548.309L208.507 245.548C204.782 244.095 200.768 243.298 196.753 243.298Z" fill="url(#paint1_linear_2301_52)"/>
<defs>
<linearGradient id="paint0_linear_2301_52" x1="509.15" y1="1795.3" x2="1716.85" y2="1795.3" gradientUnits="userSpaceOnUse">
<stop stop-color="#5039F5"/>
<stop offset="0.00613497" stop-color="#5139F4"/>
<stop offset="0.0122699" stop-color="#5339F4"/>
<stop offset="0.0184049" stop-color="#553AF4"/>
<stop offset="0.0245399" stop-color="#573AF4"/>
<stop offset="0.0306748" stop-color="#593BF4"/>
<stop offset="0.0368098" stop-color="#5B3BF4"/>
<stop offset="0.0429448" stop-color="#5C3CF4"/>
<stop offset="0.0490798" stop-color="#5E3CF4"/>
<stop offset="0.0552147" stop-color="#603DF4"/>
<stop offset="0.0613497" stop-color="#623DF4"/>
<stop offset="0.0674847" stop-color="#643EF4"/>
<stop offset="0.0736196" stop-color="#653EF4"/>
<stop offset="0.0797546" stop-color="#673FF4"/>
<stop offset="0.0858896" stop-color="#693FF4"/>
<stop offset="0.0920245" stop-color="#6B40F4"/>
<stop offset="0.0981595" stop-color="#6C40F4"/>
<stop offset="0.104294" stop-color="#6E41F4"/>
<stop offset="0.110429" stop-color="#7041F4"/>
<stop offset="0.116564" stop-color="#7241F3"/>
<stop offset="0.122699" stop-color="#7342F3"/>
<stop offset="0.128834" stop-color="#7542F3"/>
<stop offset="0.134969" stop-color="#7743F3"/>
<stop offset="0.141104" stop-color="#7843F3"/>
<stop offset="0.147239" stop-color="#7A44F3"/>
<stop offset="0.153374" stop-color="#7B44F3"/>
<stop offset="0.159509" stop-color="#7D44F3"/>
<stop offset="0.165644" stop-color="#7F45F2"/>
<stop offset="0.171779" stop-color="#8045F2"/>
<stop offset="0.177914" stop-color="#8246F2"/>
<stop offset="0.184049" stop-color="#8446F2"/>
<stop offset="0.190184" stop-color="#8547F2"/>
<stop offset="0.196319" stop-color="#8747F2"/>
<stop offset="0.202454" stop-color="#8847F1"/>
<stop offset="0.208589" stop-color="#8A48F1"/>
<stop offset="0.214724" stop-color="#8B48F1"/>
<stop offset="0.220859" stop-color="#8D49F1"/>
<stop offset="0.226994" stop-color="#8E49F1"/>
<stop offset="0.233129" stop-color="#9049F1"/>
<stop offset="0.239264" stop-color="#914AF0"/>
<stop offset="0.245399" stop-color="#934AF0"/>
<stop offset="0.251534" stop-color="#944BF0"/>
<stop offset="0.257669" stop-color="#964BF0"/>
<stop offset="0.263804" stop-color="#974BF0"/>
<stop offset="0.269939" stop-color="#994CEF"/>
<stop offset="0.276074" stop-color="#9A4CEF"/>
<stop offset="0.282209" stop-color="#9B4CEF"/>
<stop offset="0.288344" stop-color="#9D4DEF"/>
<stop offset="0.294479" stop-color="#9E4DEE"/>
<stop offset="0.300613" stop-color="#A04EEE"/>
<stop offset="0.306748" stop-color="#A14EEE"/>
<stop offset="0.312883" stop-color="#A24EEE"/>
<stop offset="0.319018" stop-color="#A44FED"/>
<stop offset="0.325153" stop-color="#A54FED"/>
<stop offset="0.331288" stop-color="#A64FED"/>
<stop offset="0.337423" stop-color="#A850ED"/>
<stop offset="0.343558" stop-color="#A950EC"/>
<stop offset="0.349693" stop-color="#AA50EC"/>
<stop offset="0.355828" stop-color="#AC51EC"/>
<stop offset="0.361963" stop-color="#AD51EC"/>
<stop offset="0.368098" stop-color="#AE51EB"/>
<stop offset="0.374233" stop-color="#AF52EB"/>
<stop offset="0.380368" stop-color="#B152EB"/>
<stop offset="0.386503" stop-color="#B252EA"/>
<stop offset="0.392638" stop-color="#B353EA"/>
<stop offset="0.398773" stop-color="#B453EA"/>
<stop offset="0.404908" stop-color="#B653E9"/>
<stop offset="0.411043" stop-color="#B754E9"/>
<stop offset="0.417178" stop-color="#B854E9"/>
<stop offset="0.423313" stop-color="#B954E9"/>
<stop offset="0.429448" stop-color="#BA54E8"/>
<stop offset="0.435583" stop-color="#BB55E8"/>
<stop offset="0.441718" stop-color="#BD55E8"/>
<stop offset="0.447853" stop-color="#BE55E7"/>
<stop offset="0.453988" stop-color="#BF56E7"/>
<stop offset="0.460123" stop-color="#C056E7"/>
<stop offset="0.466258" stop-color="#C156E6"/>
<stop offset="0.472393" stop-color="#C257E6"/>
<stop offset="0.478528" stop-color="#C357E5"/>
<stop offset="0.484663" stop-color="#C457E5"/>
<stop offset="0.490798" stop-color="#C557E5"/>
<stop offset="0.496933" stop-color="#C658E4"/>
<stop offset="0.503067" stop-color="#C758E4"/>
<stop offset="0.509202" stop-color="#C858E4"/>
<stop offset="0.515337" stop-color="#C958E3"/>
<stop offset="0.521472" stop-color="#CA59E3"/>
<stop offset="0.527607" stop-color="#CB59E2"/>
<stop offset="0.533742" stop-color="#CC59E2"/>
<stop offset="0.539877" stop-color="#CD59E2"/>
<stop offset="0.546012" stop-color="#CE5AE1"/>
<stop offset="0.552147" stop-color="#CF5AE1"/>
<stop offset="0.558282" stop-color="#D05AE0"/>
<stop offset="0.564417" stop-color="#D15AE0"/>
<stop offset="0.570552" stop-color="#D25BE0"/>
<stop offset="0.576687" stop-color="#D35BDF"/>
<stop offset="0.582822" stop-color="#D45BDF"/>
<stop offset="0.588957" stop-color="#D55BDE"/>
<stop offset="0.595092" stop-color="#D55CDE"/>
<stop offset="0.601227" stop-color="#D65CDD"/>
<stop offset="0.607362" stop-color="#D75CDD"/>
<stop offset="0.613497" stop-color="#D85CDC"/>
<stop offset="0.619632" stop-color="#D95CDC"/>
<stop offset="0.625767" stop-color="#DA5DDC"/>
<stop offset="0.631902" stop-color="#DA5DDB"/>
<stop offset="0.638037" stop-color="#DB5DDB"/>
<stop offset="0.644172" stop-color="#DC5DDA"/>
<stop offset="0.650307" stop-color="#DD5EDA"/>
<stop offset="0.656442" stop-color="#DD5ED9"/>
<stop offset="0.662577" stop-color="#DE5ED9"/>
<stop offset="0.668712" stop-color="#DF5ED8"/>
<stop offset="0.674847" stop-color="#E05ED8"/>
<stop offset="0.680982" stop-color="#E05ED7"/>
<stop offset="0.687117" stop-color="#E15FD7"/>
<stop offset="0.693252" stop-color="#E25FD6"/>
<stop offset="0.699386" stop-color="#E25FD6"/>
<stop offset="0.705521" stop-color="#E35FD5"/>
<stop offset="0.711656" stop-color="#E45FD5"/>
<stop offset="0.717791" stop-color="#E45FD4"/>
<stop offset="0.723926" stop-color="#E560D4"/>
<stop offset="0.730061" stop-color="#E560D3"/>
<stop offset="0.736196" stop-color="#E660D3"/>
<stop offset="0.742331" stop-color="#E760D2"/>
<stop offset="0.748466" stop-color="#E760D2"/>
<stop offset="0.754601" stop-color="#E860D1"/>
<stop offset="0.760736" stop-color="#E861D1"/>
<stop offset="0.766871" stop-color="#E961D0"/>
<stop offset="0.773006" stop-color="#E961CF"/>
<stop offset="0.779141" stop-color="#EA61CF"/>
<stop offset="0.785276" stop-color="#EA61CE"/>
<stop offset="0.791411" stop-color="#EB61CE"/>
<stop offset="0.797546" stop-color="#EB61CD"/>
<stop offset="0.803681" stop-color="#EC61CD"/>
<stop offset="0.809816" stop-color="#EC62CC"/>
<stop offset="0.815951" stop-color="#ED62CC"/>
<stop offset="0.822086" stop-color="#ED62CB"/>
<stop offset="0.828221" stop-color="#ED62CA"/>
<stop offset="0.834356" stop-color="#EE62CA"/>
<stop offset="0.840491" stop-color="#EE62C9"/>
<stop offset="0.846626" stop-color="#EF62C9"/>
<stop offset="0.852761" stop-color="#EF62C8"/>
<stop offset="0.858896" stop-color="#EF62C7"/>
<stop offset="0.865031" stop-color="#F062C7"/>
<stop offset="0.871166" stop-color="#F063C6"/>
<stop offset="0.877301" stop-color="#F063C6"/>
<stop offset="0.883436" stop-color="#F163C5"/>
<stop offset="0.889571" stop-color="#F163C4"/>
<stop offset="0.895706" stop-color="#F163C4"/>
<stop offset="0.901841" stop-color="#F163C3"/>
<stop offset="0.907975" stop-color="#F263C2"/>
<stop offset="0.91411" stop-color="#F263C2"/>
<stop offset="0.920245" stop-color="#F263C1"/>
<stop offset="0.92638" stop-color="#F263C1"/>
<stop offset="0.932515" stop-color="#F263C0"/>
<stop offset="0.93865" stop-color="#F363BF"/>
<stop offset="0.944785" stop-color="#F363BF"/>
<stop offset="0.95092" stop-color="#F363BE"/>
<stop offset="0.957055" stop-color="#F363BD"/>
<stop offset="0.96319" stop-color="#F363BD"/>
<stop offset="0.969325" stop-color="#F363BC"/>
<stop offset="0.97546" stop-color="#F363BB"/>
<stop offset="0.981595" stop-color="#F363BB"/>
<stop offset="0.98773" stop-color="#F363BA"/>
<stop offset="0.993865" stop-color="#F363B9"/>
<stop offset="1" stop-color="#F464B9"/>
</linearGradient>
<linearGradient id="paint1_linear_2301_52" x1="166.209" y1="455.875" x2="2048.21" y2="455.875" gradientUnits="userSpaceOnUse">
<stop stop-color="#5039F5"/>
<stop offset="0.00613497" stop-color="#5139F4"/>
<stop offset="0.0122699" stop-color="#5339F4"/>
<stop offset="0.0184049" stop-color="#553AF4"/>
<stop offset="0.0245399" stop-color="#573AF4"/>
<stop offset="0.0306748" stop-color="#593BF4"/>
<stop offset="0.0368098" stop-color="#5B3BF4"/>
<stop offset="0.0429448" stop-color="#5C3CF4"/>
<stop offset="0.0490798" stop-color="#5E3CF4"/>
<stop offset="0.0552147" stop-color="#603DF4"/>
<stop offset="0.0613497" stop-color="#623DF4"/>
<stop offset="0.0674847" stop-color="#643EF4"/>
<stop offset="0.0736196" stop-color="#653EF4"/>
<stop offset="0.0797546" stop-color="#673FF4"/>
<stop offset="0.0858896" stop-color="#693FF4"/>
<stop offset="0.0920245" stop-color="#6B40F4"/>
<stop offset="0.0981595" stop-color="#6C40F4"/>
<stop offset="0.104294" stop-color="#6E41F4"/>
<stop offset="0.110429" stop-color="#7041F4"/>
<stop offset="0.116564" stop-color="#7241F3"/>
<stop offset="0.122699" stop-color="#7342F3"/>
<stop offset="0.128834" stop-color="#7542F3"/>
<stop offset="0.134969" stop-color="#7743F3"/>
<stop offset="0.141104" stop-color="#7843F3"/>
<stop offset="0.147239" stop-color="#7A44F3"/>
<stop offset="0.153374" stop-color="#7B44F3"/>
<stop offset="0.159509" stop-color="#7D44F3"/>
<stop offset="0.165644" stop-color="#7F45F2"/>
<stop offset="0.171779" stop-color="#8045F2"/>
<stop offset="0.177914" stop-color="#8246F2"/>
<stop offset="0.184049" stop-color="#8446F2"/>
<stop offset="0.190184" stop-color="#8547F2"/>
<stop offset="0.196319" stop-color="#8747F2"/>
<stop offset="0.202454" stop-color="#8847F1"/>
<stop offset="0.208589" stop-color="#8A48F1"/>
<stop offset="0.214724" stop-color="#8B48F1"/>
<stop offset="0.220859" stop-color="#8D49F1"/>
<stop offset="0.226994" stop-color="#8E49F1"/>
<stop offset="0.233129" stop-color="#9049F1"/>
<stop offset="0.239264" stop-color="#914AF0"/>
<stop offset="0.245399" stop-color="#934AF0"/>
<stop offset="0.251534" stop-color="#944BF0"/>
<stop offset="0.257669" stop-color="#964BF0"/>
<stop offset="0.263804" stop-color="#974BF0"/>
<stop offset="0.269939" stop-color="#994CEF"/>
<stop offset="0.276074" stop-color="#9A4CEF"/>
<stop offset="0.282209" stop-color="#9B4CEF"/>
<stop offset="0.288344" stop-color="#9D4DEF"/>
<stop offset="0.294479" stop-color="#9E4DEE"/>
<stop offset="0.300613" stop-color="#A04EEE"/>
<stop offset="0.306748" stop-color="#A14EEE"/>
<stop offset="0.312883" stop-color="#A24EEE"/>
<stop offset="0.319018" stop-color="#A44FED"/>
<stop offset="0.325153" stop-color="#A54FED"/>
<stop offset="0.331288" stop-color="#A64FED"/>
<stop offset="0.337423" stop-color="#A850ED"/>
<stop offset="0.343558" stop-color="#A950EC"/>
<stop offset="0.349693" stop-color="#AA50EC"/>
<stop offset="0.355828" stop-color="#AC51EC"/>
<stop offset="0.361963" stop-color="#AD51EC"/>
<stop offset="0.368098" stop-color="#AE51EB"/>
<stop offset="0.374233" stop-color="#AF52EB"/>
<stop offset="0.380368" stop-color="#B152EB"/>
<stop offset="0.386503" stop-color="#B252EA"/>
<stop offset="0.392638" stop-color="#B353EA"/>
<stop offset="0.398773" stop-color="#B453EA"/>
<stop offset="0.404908" stop-color="#B653E9"/>
<stop offset="0.411043" stop-color="#B754E9"/>
<stop offset="0.417178" stop-color="#B854E9"/>
<stop offset="0.423313" stop-color="#B954E9"/>
<stop offset="0.429448" stop-color="#BA54E8"/>
<stop offset="0.435583" stop-color="#BB55E8"/>
<stop offset="0.441718" stop-color="#BD55E8"/>
<stop offset="0.447853" stop-color="#BE55E7"/>
<stop offset="0.453988" stop-color="#BF56E7"/>
<stop offset="0.460123" stop-color="#C056E7"/>
<stop offset="0.466258" stop-color="#C156E6"/>
<stop offset="0.472393" stop-color="#C257E6"/>
<stop offset="0.478528" stop-color="#C357E5"/>
<stop offset="0.484663" stop-color="#C457E5"/>
<stop offset="0.490798" stop-color="#C557E5"/>
<stop offset="0.496933" stop-color="#C658E4"/>
<stop offset="0.503067" stop-color="#C758E4"/>
<stop offset="0.509202" stop-color="#C858E4"/>
<stop offset="0.515337" stop-color="#C958E3"/>
<stop offset="0.521472" stop-color="#CA59E3"/>
<stop offset="0.527607" stop-color="#CB59E2"/>
<stop offset="0.533742" stop-color="#CC59E2"/>
<stop offset="0.539877" stop-color="#CD59E2"/>
<stop offset="0.546012" stop-color="#CE5AE1"/>
<stop offset="0.552147" stop-color="#CF5AE1"/>
<stop offset="0.558282" stop-color="#D05AE0"/>
<stop offset="0.564417" stop-color="#D15AE0"/>
<stop offset="0.570552" stop-color="#D25BE0"/>
<stop offset="0.576687" stop-color="#D35BDF"/>
<stop offset="0.582822" stop-color="#D45BDF"/>
<stop offset="0.588957" stop-color="#D55BDE"/>
<stop offset="0.595092" stop-color="#D55CDE"/>
<stop offset="0.601227" stop-color="#D65CDD"/>
<stop offset="0.607362" stop-color="#D75CDD"/>
<stop offset="0.613497" stop-color="#D85CDC"/>
<stop offset="0.619632" stop-color="#D95CDC"/>
<stop offset="0.625767" stop-color="#DA5DDC"/>
<stop offset="0.631902" stop-color="#DA5DDB"/>
<stop offset="0.638037" stop-color="#DB5DDB"/>
<stop offset="0.644172" stop-color="#DC5DDA"/>
<stop offset="0.650307" stop-color="#DD5EDA"/>
<stop offset="0.656442" stop-color="#DD5ED9"/>
<stop offset="0.662577" stop-color="#DE5ED9"/>
<stop offset="0.668712" stop-color="#DF5ED8"/>
<stop offset="0.674847" stop-color="#E05ED8"/>
<stop offset="0.680982" stop-color="#E05ED7"/>
<stop offset="0.687117" stop-color="#E15FD7"/>
<stop offset="0.693252" stop-color="#E25FD6"/>
<stop offset="0.699386" stop-color="#E25FD6"/>
<stop offset="0.705521" stop-color="#E35FD5"/>
<stop offset="0.711656" stop-color="#E45FD5"/>
<stop offset="0.717791" stop-color="#E45FD4"/>
<stop offset="0.723926" stop-color="#E560D4"/>
<stop offset="0.730061" stop-color="#E560D3"/>
<stop offset="0.736196" stop-color="#E660D3"/>
<stop offset="0.742331" stop-color="#E760D2"/>
<stop offset="0.748466" stop-color="#E760D2"/>
<stop offset="0.754601" stop-color="#E860D1"/>
<stop offset="0.760736" stop-color="#E861D1"/>
<stop offset="0.766871" stop-color="#E961D0"/>
<stop offset="0.773006" stop-color="#E961CF"/>
<stop offset="0.779141" stop-color="#EA61CF"/>
<stop offset="0.785276" stop-color="#EA61CE"/>
<stop offset="0.791411" stop-color="#EB61CE"/>
<stop offset="0.797546" stop-color="#EB61CD"/>
<stop offset="0.803681" stop-color="#EC61CD"/>
<stop offset="0.809816" stop-color="#EC62CC"/>
<stop offset="0.815951" stop-color="#ED62CC"/>
<stop offset="0.822086" stop-color="#ED62CB"/>
<stop offset="0.828221" stop-color="#ED62CA"/>
<stop offset="0.834356" stop-color="#EE62CA"/>
<stop offset="0.840491" stop-color="#EE62C9"/>
<stop offset="0.846626" stop-color="#EF62C9"/>
<stop offset="0.852761" stop-color="#EF62C8"/>
<stop offset="0.858896" stop-color="#EF62C7"/>
<stop offset="0.865031" stop-color="#F062C7"/>
<stop offset="0.871166" stop-color="#F063C6"/>
<stop offset="0.877301" stop-color="#F063C6"/>
<stop offset="0.883436" stop-color="#F163C5"/>
<stop offset="0.889571" stop-color="#F163C4"/>
<stop offset="0.895706" stop-color="#F163C4"/>
<stop offset="0.901841" stop-color="#F163C3"/>
<stop offset="0.907975" stop-color="#F263C2"/>
<stop offset="0.91411" stop-color="#F263C2"/>
<stop offset="0.920245" stop-color="#F263C1"/>
<stop offset="0.92638" stop-color="#F263C1"/>
<stop offset="0.932515" stop-color="#F263C0"/>
<stop offset="0.93865" stop-color="#F363BF"/>
<stop offset="0.944785" stop-color="#F363BF"/>
<stop offset="0.95092" stop-color="#F363BE"/>
<stop offset="0.957055" stop-color="#F363BD"/>
<stop offset="0.96319" stop-color="#F363BD"/>
<stop offset="0.969325" stop-color="#F363BC"/>
<stop offset="0.97546" stop-color="#F363BB"/>
<stop offset="0.981595" stop-color="#F363BB"/>
<stop offset="0.98773" stop-color="#F363BA"/>
<stop offset="0.993865" stop-color="#F363B9"/>
<stop offset="1" stop-color="#F464B9"/>
</linearGradient>
</defs>
</svg>
